<svg xmlns="http://www.w3.org/2000/svg" width="680" height="680" viewBox="0 0 680 680">
<rect width="680" height="680" rx="120" fill="#0b0d10"/>
<ellipse cx="340" cy="290" rx="185" ry="185" fill="none" stroke="#f0c040" stroke-width="2" opacity="0.2"/>
<ellipse cx="340" cy="290" rx="160" ry="112" fill="#f0c040"/>
<ellipse cx="340" cy="290" rx="160" ry="112" fill="none" stroke="#c89000" stroke-width="3"/>
<line x1="180" y1="290" x2="500" y2="290" stroke="#0b0d10" stroke-width="12"/>
<path d="M220 290 Q280 230 340 210 Q400 230 460 290" fill="none" stroke="#0b0d10" stroke-width="8"/>
<path d="M220 290 Q280 350 340 370 Q400 350 460 290" fill="none" stroke="#0b0d10" stroke-width="8"/>
<line x1="310" y1="272" x2="310" y2="308" stroke="#0b0d10" stroke-width="5" stroke-linecap="round"/>
<line x1="325" y1="265" x2="325" y2="315" stroke="#0b0d10" stroke-width="5" stroke-linecap="round"/>
<line x1="340" y1="262" x2="340" y2="318" stroke="#0b0d10" stroke-width="5" stroke-linecap="round"/>
<line x1="355" y1="265" x2="355" y2="315" stroke="#0b0d10" stroke-width="5" stroke-linecap="round"/>
<line x1="370" y1="272" x2="370" y2="308" stroke="#0b0d10" stroke-width="5" stroke-linecap="round"/>
<polygon points="200,160 205,175 220,175 208,184 213,199 200,190 187,199 192,184 180,175 195,175" fill="#f0c040" opacity="0.9"/>
<polygon points="480,140 484,152 496,152 487,159 490,172 480,165 470,172 473,159 464,152 476,152" fill="#f0c040" opacity="0.7"/>
<text x="340" y="470" text-anchor="middle" font-family="Arial Narrow,sans-serif" font-weight="900" font-size="72" fill="#f0c040" letter-spacing="4">AFL</text>
<text x="340" y="540" text-anchor="middle" font-family="Arial Narrow,sans-serif" font-weight="400" font-size="36" fill="#ede9e2" letter-spacing="12">FANTASY</text>
<text x="340" y="590" text-anchor="middle" font-family="Arial Narrow,sans-serif" font-weight="400" font-size="24" fill="#7b8899" letter-spacing="18">WIRE</text>
</svg>
